<svg width="384" height="504" viewBox="0 0 384 504" fill="none" xmlns="http://www.w3.org/2000/svg">
<mask id="path-1-inside-1_172_669" fill="white">
<path d="M194.412 638.669C195.777 638.388 197.185 638.384 198.553 638.655C199.922 638.926 201.224 639.467 202.382 640.249C203.542 641.03 204.535 642.035 205.305 643.205C206.817 645.508 207.377 648.312 206.861 651.017C206.346 653.723 204.796 656.118 202.547 657.687C191.485 665.249 183.824 669.959 173.003 675.56C169.573 677.334 165.206 677.409 161.561 676.134C151.698 672.685 152.17 661.529 161.459 656.747C172.423 651.102 184.019 644.835 190.603 640.291C191.752 639.501 193.047 638.95 194.412 638.669ZM362.95 557.375C366.616 553.631 372.209 558.101 369.087 562.309C338.585 603.426 304.992 635.446 259.303 658.25C256.07 659.864 253.507 655.142 256.413 652.995C291.956 626.728 331.365 589.638 362.95 557.375ZM443.957 191.19C445.184 180.908 461.371 178.427 463.654 188.528C463.872 189.491 463.926 190.485 463.815 191.466C455.078 268.672 430.289 342.955 391.289 409.57C392.846 412.339 393.735 415.538 393.735 418.947C393.735 429.481 385.246 438.021 374.773 438.021C374.34 438.021 373.91 438.003 373.483 437.975C369.467 443.97 365.329 449.893 361.072 455.74C305.556 531.975 216.23 605.634 114.878 646.5C110.564 648.24 105.644 647.205 102.287 643.988C96.1921 638.146 98.5856 628.316 106.477 625.309C202.36 588.778 285.654 524.758 345.921 441C349.667 435.795 353.31 430.526 356.855 425.202C356.18 423.242 355.812 421.138 355.812 418.947C355.812 409.141 363.169 401.064 372.634 399.994C410.063 336.277 436.045 257.533 443.957 191.19ZM408.818 435.922C411.535 435.327 414.376 435.841 416.718 437.35C417.897 438.08 418.92 439.038 419.731 440.165C420.54 441.294 421.122 442.574 421.439 443.929C421.757 445.284 421.805 446.689 421.58 448.063C421.356 449.437 420.863 450.75 420.132 451.932C373.263 525.543 310.83 587.853 237.286 634.423C237.286 634.423 237.264 634.439 237.224 634.47C234.432 636.62 229.638 636.861 226.784 634.792C225.174 633.86 223.803 632.559 222.79 630.991C222.057 629.812 221.563 628.5 221.335 627.128C221.106 625.757 221.15 624.352 221.463 622.998C221.776 621.643 222.35 620.361 223.156 619.231C223.961 618.1 224.98 617.142 226.154 616.408C296.93 571.444 357.032 511.401 402.22 440.52C403.727 438.17 406.1 436.516 408.818 435.922ZM229.366 503.223C230.701 502.814 232.106 502.676 233.495 502.82C234.884 502.962 236.23 503.382 237.455 504.054C238.681 504.726 239.764 505.636 240.636 506.733C241.527 507.814 242.194 509.064 242.6 510.407C243.007 511.75 243.142 513.159 243.001 514.557C242.859 515.954 242.444 517.31 241.776 518.543C241.109 519.776 240.2 520.861 239.11 521.738C192.128 560.269 138.586 589.869 81.1109 609.11C76.6204 610.613 71.6665 609.054 68.9458 605.18C64.7476 599.204 67.8625 591.053 74.7875 588.722C129.645 570.253 180.781 541.972 225.718 505.202C226.791 504.305 228.031 503.631 229.366 503.223ZM184.053 480.646C185.405 480.306 186.813 480.239 188.192 480.45C189.57 480.662 190.893 481.148 192.083 481.878C193.273 482.61 194.305 483.573 195.123 484.711C195.958 485.834 196.565 487.113 196.904 488.474C197.244 489.834 197.31 491.25 197.099 492.637C196.89 494.024 196.407 495.354 195.68 496.552C194.954 497.749 193.996 498.788 192.865 499.609C151.584 529.792 105.585 552.796 56.7877 567.68C51.7335 569.222 46.328 566.868 44.0567 562.1C41.2008 556.104 44.6003 549.111 50.9578 547.18C97.3629 533.089 141.101 511.212 180.311 482.441C181.427 481.599 182.7 480.989 184.053 480.646ZM346.45 -9.25949C355.501 -9.25949 362.839 -1.8783 362.839 7.226C362.839 14.3728 358.317 20.4558 351.995 22.7422C340.539 59.8576 334.7 98.5197 334.69 137.429C334.663 137.913 334.574 138.395 334.427 138.858C334.121 188.8 324.746 237.917 307.093 283.9C308.778 286.491 309.757 289.585 309.757 292.912C309.757 300.96 304.023 307.658 296.442 309.104C283.708 336.643 267.897 362.834 249.188 387.14C221.631 422.939 188.563 453.645 151.49 478.255C151.56 478.921 151.598 479.598 151.598 480.283C151.598 490.817 143.109 499.356 132.636 499.356C128.696 499.356 125.038 498.147 122.006 496.078C98.0413 509.211 72.7146 519.948 46.3738 528.059C43.8432 533.877 38.0724 537.943 31.3551 537.943C22.3041 537.943 14.9665 530.563 14.9665 521.459C14.9666 512.355 22.3042 504.975 31.3551 504.975C34.7391 504.975 37.8837 506.005 40.4948 507.774C66.1573 499.848 90.8045 489.294 114.078 476.349C115.881 467.702 123.505 461.21 132.636 461.21C134.461 461.21 136.225 461.47 137.896 461.953C173.956 438.343 206.09 408.686 232.773 373.988C250.76 350.599 265.922 325.375 278.077 298.847C277.369 297.006 276.981 295.004 276.981 292.912C276.981 286.073 281.122 280.205 287.019 277.71C304.385 233.046 313.506 185.237 313.573 136.64C313.576 136.152 313.664 135.667 313.836 135.211C313.969 94.5576 320.181 54.1841 332.24 15.4439C330.855 13.0249 330.062 10.2189 330.062 7.226C330.062 -1.8783 337.399 -9.25832 346.45 -9.25949ZM225.801 309.666C227.149 309.335 228.552 309.271 229.924 309.484C231.295 309.698 232.61 310.182 233.796 310.908C234.982 311.632 236.018 312.587 236.839 313.714C237.659 314.84 238.25 316.116 238.579 317.472C238.909 318.83 238.968 320.237 238.756 321.617C238.544 322.997 238.062 324.322 237.341 325.515C223.102 349.169 206.369 370.936 187.554 390.515C187.369 399.458 180.106 406.65 171.172 406.65C171.128 406.65 171.085 406.648 171.041 406.648C130.4 443.922 81.5979 471.766 28.0552 487.6C22.6725 489.192 17.0407 486.125 15.6537 480.69C15.5483 480.277 15.4442 479.863 15.3414 479.449C13.9968 474.031 17.378 468.644 22.7301 467.047C72.1163 452.305 117.201 426.726 154.96 392.588C154.843 391.798 154.784 390.99 154.784 390.166C154.784 381.062 162.121 373.682 171.172 373.682C172.154 373.682 173.117 373.768 174.052 373.935C191.091 355.95 206.281 336.043 219.272 314.473C219.994 313.281 220.943 312.241 222.063 311.417C223.182 310.592 224.452 309.998 225.801 309.666ZM406.142 85.9104C407.52 77.5869 418.842 74.8154 423.28 81.9921C424.479 83.9308 425.461 85.807 426.059 87.5067C426.777 89.5516 426.507 91.7553 426.177 93.8974C423.962 108.267 422.852 122.789 422.857 137.335C422.818 137.817 422.729 138.298 422.594 138.763C422.292 165.947 419.789 192.894 415.183 219.361C417.343 222.154 418.629 225.663 418.629 229.474C418.629 235.633 415.27 241.001 410.296 243.831C391.27 328.125 350.684 406.639 291.753 471.198C290.776 472.302 289.578 473.187 288.239 473.797C286.9 474.406 285.449 474.728 283.98 474.738C281.348 474.648 278.833 473.616 276.887 471.83C275.865 470.887 275.038 469.749 274.455 468.482C273.871 467.216 273.544 465.844 273.489 464.449C273.436 463.053 273.655 461.662 274.14 460.353C274.624 459.044 275.362 457.845 276.31 456.824C332.512 395.199 371.283 320.337 389.603 239.968C387.26 237.117 385.853 233.461 385.853 229.474C385.853 223.136 389.411 217.634 394.625 214.875C399.055 189.222 401.425 163.099 401.636 136.752C401.661 136.233 401.748 135.719 401.899 135.221C402.023 118.687 403.444 102.199 406.142 85.9104ZM388.089 38.2382C390.976 41.017 392.065 45.1652 391.012 49.0302C386.455 65.7475 383.198 82.7798 381.259 99.973C384.118 102.941 385.878 106.985 385.878 111.443C385.878 116.804 383.331 121.567 379.391 124.577C379.224 128.842 379.135 133.113 379.129 137.387C379.129 137.968 378.814 138.39 378.867 138.761C378.239 201.946 364.393 264.292 338.231 321.74C312.067 379.188 274.174 430.453 227.014 472.198C225.033 473.842 222.545 474.74 219.977 474.735C218.481 474.748 216.997 474.438 215.629 473.828C214.262 473.217 213.04 472.32 212.046 471.195C211.113 470.159 210.395 468.943 209.933 467.625C209.47 466.308 209.271 464.912 209.349 463.517C209.427 462.121 209.781 460.753 210.387 459.495C210.994 458.238 211.845 457.115 212.886 456.189C258.132 416.305 294.44 367.207 319.406 312.146C344.372 257.086 357.425 197.321 357.7 136.806C357.7 136.278 357.963 135.852 357.963 135.271C357.994 131.324 358.093 127.381 358.253 123.441C355.081 120.435 353.102 116.172 353.1 111.443C353.1 105.806 355.913 100.831 360.203 97.8582C362.291 79.2567 365.825 60.8379 370.78 42.7721C372.879 35.1155 382.367 32.731 388.089 38.2382ZM47.3329 406.616C48.7265 406.615 50.1063 406.893 51.3919 407.433C52.6776 407.974 53.8445 408.767 54.8226 409.766C55.8004 410.764 56.5696 411.947 57.0881 413.248C58.1043 415.809 58.0872 418.667 57.0373 421.214C55.9872 423.76 53.9879 425.794 51.4683 426.88C40.7133 431.389 29.7374 435.341 18.5847 438.718C12.6389 440.519 6.5386 436.602 5.64228 430.458C5.61226 430.253 5.58237 430.047 5.55262 429.841C4.80126 424.637 8.14201 419.776 13.1838 418.273C23.4039 415.227 33.4501 411.609 43.274 407.437C44.5591 406.895 45.9394 406.616 47.3329 406.616ZM446.589 354.152C451.76 341.586 468.817 344.665 466.111 357.981C465.534 360.993 464.852 364.109 464.011 367.226C457.744 382.372 450.739 397.255 443.001 411.873C442.098 413.602 440.735 415.044 439.066 416.043C437.398 417.041 435.487 417.554 433.546 417.525C431.822 417.517 430.126 417.079 428.609 416.255C427.386 415.605 426.303 414.719 425.423 413.647C424.541 412.574 423.878 411.339 423.472 410.009C423.067 408.679 422.926 407.279 423.059 405.894C423.193 404.509 423.598 403.165 424.248 401.938C432.445 386.356 439.899 370.41 446.589 354.152ZM256.194 -12.6486C263.944 -13.5866 269.535 -5.99728 267.336 1.48755C263.604 14.1942 260.355 27.0418 257.597 40.0016C262.239 49.5556 264.613 60.0623 264.532 70.6968C264.609 77.4401 263.668 84.1562 261.746 90.6166C258.565 100.392 253.674 109.516 247.303 117.563C246.673 124.166 246.672 130.719 246.672 137.324V138.907C246.134 194.747 230.802 249.433 202.253 297.328C173.706 345.222 132.975 384.588 84.2618 411.374C82.6172 412.146 80.8221 412.545 79.0075 412.54C77.0983 412.544 75.2247 412.023 73.5867 411.036C71.9488 410.049 70.608 408.632 69.7106 406.938C68.4283 404.5 68.1463 401.654 68.9214 399.009C69.6968 396.362 71.4701 394.127 73.8622 392.778C119.576 367.645 157.757 330.648 184.435 285.638C211.112 240.627 225.313 189.248 225.557 136.847C225.189 137.006 224.768 137.64 224.399 137.64C219.294 140.46 213.577 141.967 207.752 142.026C205.978 141.949 204.214 141.681 202.496 141.233C201.696 193.311 185.858 244.032 156.906 287.215C156.787 287.396 156.665 287.576 156.545 287.756C157.361 289.885 157.809 292.197 157.809 294.615C157.809 305.149 149.32 313.689 138.847 313.689C138.179 313.689 137.519 313.653 136.868 313.585C111.48 342.877 80.3798 366.616 45.4956 383.323C35.4463 388.167 25.1336 392.427 14.608 396.085C8.28807 398.282 1.63443 393.826 1.18771 387.154C1.16074 386.751 1.13497 386.349 1.11056 385.946C0.829492 381.316 3.89168 377.24 8.28792 375.749C17.9355 372.477 27.3795 368.619 36.5676 364.196C68.5981 348.743 97.21 326.964 120.701 300.163C120.172 298.407 119.886 296.544 119.886 294.615C119.886 284.081 128.375 275.543 138.847 275.543C138.968 275.543 139.086 275.544 139.206 275.546C166.298 234.54 181.11 186.306 181.489 136.638C181.489 136.056 181.854 135.686 181.854 135.264V125.276C181.854 124.854 181.435 124.643 181.435 124.273C172.752 105.535 171.129 84.2639 176.865 64.4115C179.778 55.1557 184.573 46.6077 190.943 39.3129C192.827 29.0705 194.98 18.8678 197.531 8.76891C198.359 5.49275 200.662 2.78287 203.777 1.46783C211.973 -1.99255 220.087 5.57788 217.902 14.1968C217.31 16.5293 216.727 18.8618 216.154 21.1943C222.747 18.9126 229.875 18.7078 236.586 20.6108C237.794 21.0333 238.74 21.8262 239.949 22.1966C242.154 13.0689 244.529 3.87251 247.352 -5.19824C248.598 -9.20074 252.03 -12.1446 256.194 -12.6486ZM149.859 33.3533C157.647 27.416 168.039 34.5373 166.43 44.1938C161.303 74.9839 158.723 106.163 158.725 137.413C158.714 137.985 158.625 138.557 158.462 139.106C158.364 148.661 157.676 158.163 156.423 167.562C159.461 170.943 161.31 175.425 161.31 180.341C161.31 187.986 156.839 194.578 150.385 197.621C143.026 224.84 130.758 250.644 114.018 273.685C88.4304 308.905 53.5568 336.081 13.4752 352.225C6.88361 354.881 -0.140102 349.957 0.00212463 342.856C0.0103204 342.447 0.019493 342.038 0.0296858 341.629C0.133948 337.448 2.84724 333.83 6.71726 332.238C44.1853 316.822 76.4883 290.84 99.6935 257.355C113.085 238.031 123.098 216.712 129.444 194.314C125.719 190.831 123.387 185.861 123.387 180.341C123.387 172.087 128.601 165.057 135.896 162.401C136.942 153.934 137.484 145.377 137.505 136.781C137.516 136.26 137.604 135.744 137.766 135.249C137.904 103.393 140.58 71.5988 145.774 40.1777C146.222 37.4674 147.673 35.0194 149.859 33.3533ZM104.447 56.2776C113.759 56.2788 121.308 63.8719 121.308 73.2377C121.308 78.1964 119.191 82.6556 115.818 85.7574C114.415 102.772 114.074 118.242 114.792 136.982C114.792 137.722 114.528 138.304 114.528 138.99C113.827 175.242 102.837 210.537 82.8572 240.716C66.1189 265.999 43.6542 286.809 17.4125 301.497C10.4761 305.379 2.47322 299.794 3.44549 291.909C3.53284 291.201 3.6221 290.494 3.71316 289.789C4.14323 286.458 6.19547 283.579 9.10671 281.901C33.7205 267.715 54.379 247.46 69.11 223.006C84.7642 197.02 93.1422 167.259 93.3598 136.875C93.3869 136.477 93.4755 136.085 93.6225 135.713C93.0287 119.457 93.2736 103.181 94.3572 86.9491C94.3783 86.9243 94.3997 86.8983 94.4208 86.8734C90.2745 83.7834 87.585 78.8271 87.5849 73.2377C87.5849 63.8719 95.1348 56.2776 104.447 56.2776ZM423.022 -201.003C432.073 -201.003 439.41 -193.623 439.41 -184.519C439.41 -175.415 432.073 -168.035 423.022 -168.034C422.178 -168.034 421.349 -168.1 420.539 -168.224C411.073 -159.028 402.098 -149.33 393.655 -139.168C393.244 -139.013 393.235 -138.758 393.235 -138.746L391.135 -136.156C389.192 -133.884 387.458 -131.72 385.515 -129.342C383.572 -126.965 381.419 -124.216 379.475 -121.68C374.695 -115.446 370.021 -108.948 365.661 -102.397C362.964 -98.7336 360.424 -94.9088 358.042 -90.9286C357.885 -90.6646 357.467 -90.2434 357.467 -89.9266C314.206 -22.1354 291.162 56.7072 291.071 137.262C291.071 137.843 290.811 138.265 290.811 138.687C290.335 190.431 278.946 241.485 257.403 288.475C256.54 290.324 255.164 291.881 253.439 292.961C251.715 294.039 249.715 294.59 247.686 294.55C246.175 294.556 244.683 294.213 243.326 293.548C242.059 292.977 240.919 292.159 239.969 291.142C239.019 290.125 238.277 288.928 237.789 287.621C237.301 286.314 237.072 284.924 237.122 283.529C237.17 282.133 237.495 280.763 238.073 279.494C258.673 234.781 269.423 186.119 269.589 136.84C269.589 136.259 269.853 135.626 269.643 135.466C270.028 85.2568 278.91 35.4785 295.906 -11.7317C298.743 -20.133 301.946 -28.0574 305.361 -35.983C305.772 -36.7025 306.105 -37.4658 306.356 -38.2552C310.034 -46.9204 314.132 -55.4247 318.493 -63.9314C319.91 -67.6829 321.747 -71.1173 323.743 -74.4984C323.824 -74.8558 323.966 -75.1943 324.163 -75.502C326.684 -80.1517 329.258 -84.6954 331.937 -89.2389C335.456 -95.4733 339.292 -101.444 343.231 -107.414C344.491 -109.421 345.912 -111.379 347.173 -113.386C364.53 -138.994 384.459 -162.719 406.637 -184.197C406.635 -184.304 406.634 -184.412 406.634 -184.519C406.634 -193.623 413.971 -201.003 423.022 -201.003ZM59.8172 134.234C62.8186 129.381 70.3284 131.728 70.3284 137.433C70.1747 138.855 69.8971 140.269 69.843 141.698C69.0212 163.423 63.3409 184.691 53.2177 203.92C47.0964 215.548 39.4483 226.243 30.5103 235.732C23.8586 242.794 13.9617 236.454 16.8708 227.202C18.052 223.445 19.2997 219.709 20.6134 215.996C21.0098 214.876 21.6033 213.836 22.34 212.903C35.0298 196.83 43.5503 177.838 47.137 157.636C47.3751 156.295 47.8077 154.994 48.4586 153.797C52.0634 147.17 55.8511 140.646 59.8172 134.234ZM227.657 33.6086C218.803 35.3341 210.619 39.5531 204.055 45.7722C197.49 51.9924 192.815 59.9558 190.574 68.743C185.924 85.0462 187.116 102.475 193.938 117.985C194.769 120.306 196.125 122.399 197.903 124.099C199.68 125.798 201.828 127.06 204.174 127.778C206.52 128.497 208.999 128.652 211.416 128.236C213.834 127.821 216.122 126.844 218.097 125.383C232.379 116.432 243.115 102.758 248.457 86.7077C254.813 64.7819 246.83 38.8407 232.648 34.4027C231.047 33.8335 229.354 33.5637 227.657 33.6086Z"/>
</mask>
<path d="M194.412 638.669C195.777 638.388 197.185 638.384 198.553 638.655C199.922 638.926 201.224 639.467 202.382 640.249C203.542 641.03 204.535 642.035 205.305 643.205C206.817 645.508 207.377 648.312 206.861 651.017C206.346 653.723 204.796 656.118 202.547 657.687C191.485 665.249 183.824 669.959 173.003 675.56C169.573 677.334 165.206 677.409 161.561 676.134C151.698 672.685 152.17 661.529 161.459 656.747C172.423 651.102 184.019 644.835 190.603 640.291C191.752 639.501 193.047 638.95 194.412 638.669ZM362.95 557.375C366.616 553.631 372.209 558.101 369.087 562.309C338.585 603.426 304.992 635.446 259.303 658.25C256.07 659.864 253.507 655.142 256.413 652.995C291.956 626.728 331.365 589.638 362.95 557.375ZM443.957 191.19C445.184 180.908 461.371 178.427 463.654 188.528C463.872 189.491 463.926 190.485 463.815 191.466C455.078 268.672 430.289 342.955 391.289 409.57C392.846 412.339 393.735 415.538 393.735 418.947C393.735 429.481 385.246 438.021 374.773 438.021C374.34 438.021 373.91 438.003 373.483 437.975C369.467 443.97 365.329 449.893 361.072 455.74C305.556 531.975 216.23 605.634 114.878 646.5C110.564 648.24 105.644 647.205 102.287 643.988C96.1921 638.146 98.5856 628.316 106.477 625.309C202.36 588.778 285.654 524.758 345.921 441C349.667 435.795 353.31 430.526 356.855 425.202C356.18 423.242 355.812 421.138 355.812 418.947C355.812 409.141 363.169 401.064 372.634 399.994C410.063 336.277 436.045 257.533 443.957 191.19ZM408.818 435.922C411.535 435.327 414.376 435.841 416.718 437.35C417.897 438.08 418.92 439.038 419.731 440.165C420.54 441.294 421.122 442.574 421.439 443.929C421.757 445.284 421.805 446.689 421.58 448.063C421.356 449.437 420.863 450.75 420.132 451.932C373.263 525.543 310.83 587.853 237.286 634.423C237.286 634.423 237.264 634.439 237.224 634.47C234.432 636.62 229.638 636.861 226.784 634.792C225.174 633.86 223.803 632.559 222.79 630.991C222.057 629.812 221.563 628.5 221.335 627.128C221.106 625.757 221.15 624.352 221.463 622.998C221.776 621.643 222.35 620.361 223.156 619.231C223.961 618.1 224.98 617.142 226.154 616.408C296.93 571.444 357.032 511.401 402.22 440.52C403.727 438.17 406.1 436.516 408.818 435.922ZM229.366 503.223C230.701 502.814 232.106 502.676 233.495 502.82C234.884 502.962 236.23 503.382 237.455 504.054C238.681 504.726 239.764 505.636 240.636 506.733C241.527 507.814 242.194 509.064 242.6 510.407C243.007 511.75 243.142 513.159 243.001 514.557C242.859 515.954 242.444 517.31 241.776 518.543C241.109 519.776 240.2 520.861 239.11 521.738C192.128 560.269 138.586 589.869 81.1109 609.11C76.6204 610.613 71.6665 609.054 68.9458 605.18C64.7476 599.204 67.8625 591.053 74.7875 588.722C129.645 570.253 180.781 541.972 225.718 505.202C226.791 504.305 228.031 503.631 229.366 503.223ZM184.053 480.646C185.405 480.306 186.813 480.239 188.192 480.45C189.57 480.662 190.893 481.148 192.083 481.878C193.273 482.61 194.305 483.573 195.123 484.711C195.958 485.834 196.565 487.113 196.904 488.474C197.244 489.834 197.31 491.25 197.099 492.637C196.89 494.024 196.407 495.354 195.68 496.552C194.954 497.749 193.996 498.788 192.865 499.609C151.584 529.792 105.585 552.796 56.7877 567.68C51.7335 569.222 46.328 566.868 44.0567 562.1C41.2008 556.104 44.6003 549.111 50.9578 547.18C97.3629 533.089 141.101 511.212 180.311 482.441C181.427 481.599 182.7 480.989 184.053 480.646ZM346.45 -9.25949C355.501 -9.25949 362.839 -1.8783 362.839 7.226C362.839 14.3728 358.317 20.4558 351.995 22.7422C340.539 59.8576 334.7 98.5197 334.69 137.429C334.663 137.913 334.574 138.395 334.427 138.858C334.121 188.8 324.746 237.917 307.093 283.9C308.778 286.491 309.757 289.585 309.757 292.912C309.757 300.96 304.023 307.658 296.442 309.104C283.708 336.643 267.897 362.834 249.188 387.14C221.631 422.939 188.563 453.645 151.49 478.255C151.56 478.921 151.598 479.598 151.598 480.283C151.598 490.817 143.109 499.356 132.636 499.356C128.696 499.356 125.038 498.147 122.006 496.078C98.0413 509.211 72.7146 519.948 46.3738 528.059C43.8432 533.877 38.0724 537.943 31.3551 537.943C22.3041 537.943 14.9665 530.563 14.9665 521.459C14.9666 512.355 22.3042 504.975 31.3551 504.975C34.7391 504.975 37.8837 506.005 40.4948 507.774C66.1573 499.848 90.8045 489.294 114.078 476.349C115.881 467.702 123.505 461.21 132.636 461.21C134.461 461.21 136.225 461.47 137.896 461.953C173.956 438.343 206.09 408.686 232.773 373.988C250.76 350.599 265.922 325.375 278.077 298.847C277.369 297.006 276.981 295.004 276.981 292.912C276.981 286.073 281.122 280.205 287.019 277.71C304.385 233.046 313.506 185.237 313.573 136.64C313.576 136.152 313.664 135.667 313.836 135.211C313.969 94.5576 320.181 54.1841 332.24 15.4439C330.855 13.0249 330.062 10.2189 330.062 7.226C330.062 -1.8783 337.399 -9.25832 346.45 -9.25949ZM225.801 309.666C227.149 309.335 228.552 309.271 229.924 309.484C231.295 309.698 232.61 310.182 233.796 310.908C234.982 311.632 236.018 312.587 236.839 313.714C237.659 314.84 238.25 316.116 238.579 317.472C238.909 318.83 238.968 320.237 238.756 321.617C238.544 322.997 238.062 324.322 237.341 325.515C223.102 349.169 206.369 370.936 187.554 390.515C187.369 399.458 180.106 406.65 171.172 406.65C171.128 406.65 171.085 406.648 171.041 406.648C130.4 443.922 81.5979 471.766 28.0552 487.6C22.6725 489.192 17.0407 486.125 15.6537 480.69C15.5483 480.277 15.4442 479.863 15.3414 479.449C13.9968 474.031 17.378 468.644 22.7301 467.047C72.1163 452.305 117.201 426.726 154.96 392.588C154.843 391.798 154.784 390.99 154.784 390.166C154.784 381.062 162.121 373.682 171.172 373.682C172.154 373.682 173.117 373.768 174.052 373.935C191.091 355.95 206.281 336.043 219.272 314.473C219.994 313.281 220.943 312.241 222.063 311.417C223.182 310.592 224.452 309.998 225.801 309.666ZM406.142 85.9104C407.52 77.5869 418.842 74.8154 423.28 81.9921C424.479 83.9308 425.461 85.807 426.059 87.5067C426.777 89.5516 426.507 91.7553 426.177 93.8974C423.962 108.267 422.852 122.789 422.857 137.335C422.818 137.817 422.729 138.298 422.594 138.763C422.292 165.947 419.789 192.894 415.183 219.361C417.343 222.154 418.629 225.663 418.629 229.474C418.629 235.633 415.27 241.001 410.296 243.831C391.27 328.125 350.684 406.639 291.753 471.198C290.776 472.302 289.578 473.187 288.239 473.797C286.9 474.406 285.449 474.728 283.98 474.738C281.348 474.648 278.833 473.616 276.887 471.83C275.865 470.887 275.038 469.749 274.455 468.482C273.871 467.216 273.544 465.844 273.489 464.449C273.436 463.053 273.655 461.662 274.14 460.353C274.624 459.044 275.362 457.845 276.31 456.824C332.512 395.199 371.283 320.337 389.603 239.968C387.26 237.117 385.853 233.461 385.853 229.474C385.853 223.136 389.411 217.634 394.625 214.875C399.055 189.222 401.425 163.099 401.636 136.752C401.661 136.233 401.748 135.719 401.899 135.221C402.023 118.687 403.444 102.199 406.142 85.9104ZM388.089 38.2382C390.976 41.017 392.065 45.1652 391.012 49.0302C386.455 65.7475 383.198 82.7798 381.259 99.973C384.118 102.941 385.878 106.985 385.878 111.443C385.878 116.804 383.331 121.567 379.391 124.577C379.224 128.842 379.135 133.113 379.129 137.387C379.129 137.968 378.814 138.39 378.867 138.761C378.239 201.946 364.393 264.292 338.231 321.74C312.067 379.188 274.174 430.453 227.014 472.198C225.033 473.842 222.545 474.74 219.977 474.735C218.481 474.748 216.997 474.438 215.629 473.828C214.262 473.217 213.04 472.32 212.046 471.195C211.113 470.159 210.395 468.943 209.933 467.625C209.47 466.308 209.271 464.912 209.349 463.517C209.427 462.121 209.781 460.753 210.387 459.495C210.994 458.238 211.845 457.115 212.886 456.189C258.132 416.305 294.44 367.207 319.406 312.146C344.372 257.086 357.425 197.321 357.7 136.806C357.7 136.278 357.963 135.852 357.963 135.271C357.994 131.324 358.093 127.381 358.253 123.441C355.081 120.435 353.102 116.172 353.1 111.443C353.1 105.806 355.913 100.831 360.203 97.8582C362.291 79.2567 365.825 60.8379 370.78 42.7721C372.879 35.1155 382.367 32.731 388.089 38.2382ZM47.3329 406.616C48.7265 406.615 50.1063 406.893 51.3919 407.433C52.6776 407.974 53.8445 408.767 54.8226 409.766C55.8004 410.764 56.5696 411.947 57.0881 413.248C58.1043 415.809 58.0872 418.667 57.0373 421.214C55.9872 423.76 53.9879 425.794 51.4683 426.88C40.7133 431.389 29.7374 435.341 18.5847 438.718C12.6389 440.519 6.5386 436.602 5.64228 430.458C5.61226 430.253 5.58237 430.047 5.55262 429.841C4.80126 424.637 8.14201 419.776 13.1838 418.273C23.4039 415.227 33.4501 411.609 43.274 407.437C44.5591 406.895 45.9394 406.616 47.3329 406.616ZM446.589 354.152C451.76 341.586 468.817 344.665 466.111 357.981C465.534 360.993 464.852 364.109 464.011 367.226C457.744 382.372 450.739 397.255 443.001 411.873C442.098 413.602 440.735 415.044 439.066 416.043C437.398 417.041 435.487 417.554 433.546 417.525C431.822 417.517 430.126 417.079 428.609 416.255C427.386 415.605 426.303 414.719 425.423 413.647C424.541 412.574 423.878 411.339 423.472 410.009C423.067 408.679 422.926 407.279 423.059 405.894C423.193 404.509 423.598 403.165 424.248 401.938C432.445 386.356 439.899 370.41 446.589 354.152ZM256.194 -12.6486C263.944 -13.5866 269.535 -5.99728 267.336 1.48755C263.604 14.1942 260.355 27.0418 257.597 40.0016C262.239 49.5556 264.613 60.0623 264.532 70.6968C264.609 77.4401 263.668 84.1562 261.746 90.6166C258.565 100.392 253.674 109.516 247.303 117.563C246.673 124.166 246.672 130.719 246.672 137.324V138.907C246.134 194.747 230.802 249.433 202.253 297.328C173.706 345.222 132.975 384.588 84.2618 411.374C82.6172 412.146 80.8221 412.545 79.0075 412.54C77.0983 412.544 75.2247 412.023 73.5867 411.036C71.9488 410.049 70.608 408.632 69.7106 406.938C68.4283 404.5 68.1463 401.654 68.9214 399.009C69.6968 396.362 71.4701 394.127 73.8622 392.778C119.576 367.645 157.757 330.648 184.435 285.638C211.112 240.627 225.313 189.248 225.557 136.847C225.189 137.006 224.768 137.64 224.399 137.64C219.294 140.46 213.577 141.967 207.752 142.026C205.978 141.949 204.214 141.681 202.496 141.233C201.696 193.311 185.858 244.032 156.906 287.215C156.787 287.396 156.665 287.576 156.545 287.756C157.361 289.885 157.809 292.197 157.809 294.615C157.809 305.149 149.32 313.689 138.847 313.689C138.179 313.689 137.519 313.653 136.868 313.585C111.48 342.877 80.3798 366.616 45.4956 383.323C35.4463 388.167 25.1336 392.427 14.608 396.085C8.28807 398.282 1.63443 393.826 1.18771 387.154C1.16074 386.751 1.13497 386.349 1.11056 385.946C0.829492 381.316 3.89168 377.24 8.28792 375.749C17.9355 372.477 27.3795 368.619 36.5676 364.196C68.5981 348.743 97.21 326.964 120.701 300.163C120.172 298.407 119.886 296.544 119.886 294.615C119.886 284.081 128.375 275.543 138.847 275.543C138.968 275.543 139.086 275.544 139.206 275.546C166.298 234.54 181.11 186.306 181.489 136.638C181.489 136.056 181.854 135.686 181.854 135.264V125.276C181.854 124.854 181.435 124.643 181.435 124.273C172.752 105.535 171.129 84.2639 176.865 64.4115C179.778 55.1557 184.573 46.6077 190.943 39.3129C192.827 29.0705 194.98 18.8678 197.531 8.76891C198.359 5.49275 200.662 2.78287 203.777 1.46783C211.973 -1.99255 220.087 5.57788 217.902 14.1968C217.31 16.5293 216.727 18.8618 216.154 21.1943C222.747 18.9126 229.875 18.7078 236.586 20.6108C237.794 21.0333 238.74 21.8262 239.949 22.1966C242.154 13.0689 244.529 3.87251 247.352 -5.19824C248.598 -9.20074 252.03 -12.1446 256.194 -12.6486ZM149.859 33.3533C157.647 27.416 168.039 34.5373 166.43 44.1938C161.303 74.9839 158.723 106.163 158.725 137.413C158.714 137.985 158.625 138.557 158.462 139.106C158.364 148.661 157.676 158.163 156.423 167.562C159.461 170.943 161.31 175.425 161.31 180.341C161.31 187.986 156.839 194.578 150.385 197.621C143.026 224.84 130.758 250.644 114.018 273.685C88.4304 308.905 53.5568 336.081 13.4752 352.225C6.88361 354.881 -0.140102 349.957 0.00212463 342.856C0.0103204 342.447 0.019493 342.038 0.0296858 341.629C0.133948 337.448 2.84724 333.83 6.71726 332.238C44.1853 316.822 76.4883 290.84 99.6935 257.355C113.085 238.031 123.098 216.712 129.444 194.314C125.719 190.831 123.387 185.861 123.387 180.341C123.387 172.087 128.601 165.057 135.896 162.401C136.942 153.934 137.484 145.377 137.505 136.781C137.516 136.26 137.604 135.744 137.766 135.249C137.904 103.393 140.58 71.5988 145.774 40.1777C146.222 37.4674 147.673 35.0194 149.859 33.3533ZM104.447 56.2776C113.759 56.2788 121.308 63.8719 121.308 73.2377C121.308 78.1964 119.191 82.6556 115.818 85.7574C114.415 102.772 114.074 118.242 114.792 136.982C114.792 137.722 114.528 138.304 114.528 138.99C113.827 175.242 102.837 210.537 82.8572 240.716C66.1189 265.999 43.6542 286.809 17.4125 301.497C10.4761 305.379 2.47322 299.794 3.44549 291.909C3.53284 291.201 3.6221 290.494 3.71316 289.789C4.14323 286.458 6.19547 283.579 9.10671 281.901C33.7205 267.715 54.379 247.46 69.11 223.006C84.7642 197.02 93.1422 167.259 93.3598 136.875C93.3869 136.477 93.4755 136.085 93.6225 135.713C93.0287 119.457 93.2736 103.181 94.3572 86.9491C94.3783 86.9243 94.3997 86.8983 94.4208 86.8734C90.2745 83.7834 87.585 78.8271 87.5849 73.2377C87.5849 63.8719 95.1348 56.2776 104.447 56.2776ZM423.022 -201.003C432.073 -201.003 439.41 -193.623 439.41 -184.519C439.41 -175.415 432.073 -168.035 423.022 -168.034C422.178 -168.034 421.349 -168.1 420.539 -168.224C411.073 -159.028 402.098 -149.33 393.655 -139.168C393.244 -139.013 393.235 -138.758 393.235 -138.746L391.135 -136.156C389.192 -133.884 387.458 -131.72 385.515 -129.342C383.572 -126.965 381.419 -124.216 379.475 -121.68C374.695 -115.446 370.021 -108.948 365.661 -102.397C362.964 -98.7336 360.424 -94.9088 358.042 -90.9286C357.885 -90.6646 357.467 -90.2434 357.467 -89.9266C314.206 -22.1354 291.162 56.7072 291.071 137.262C291.071 137.843 290.811 138.265 290.811 138.687C290.335 190.431 278.946 241.485 257.403 288.475C256.54 290.324 255.164 291.881 253.439 292.961C251.715 294.039 249.715 294.59 247.686 294.55C246.175 294.556 244.683 294.213 243.326 293.548C242.059 292.977 240.919 292.159 239.969 291.142C239.019 290.125 238.277 288.928 237.789 287.621C237.301 286.314 237.072 284.924 237.122 283.529C237.17 282.133 237.495 280.763 238.073 279.494C258.673 234.781 269.423 186.119 269.589 136.84C269.589 136.259 269.853 135.626 269.643 135.466C270.028 85.2568 278.91 35.4785 295.906 -11.7317C298.743 -20.133 301.946 -28.0574 305.361 -35.983C305.772 -36.7025 306.105 -37.4658 306.356 -38.2552C310.034 -46.9204 314.132 -55.4247 318.493 -63.9314C319.91 -67.6829 321.747 -71.1173 323.743 -74.4984C323.824 -74.8558 323.966 -75.1943 324.163 -75.502C326.684 -80.1517 329.258 -84.6954 331.937 -89.2389C335.456 -95.4733 339.292 -101.444 343.231 -107.414C344.491 -109.421 345.912 -111.379 347.173 -113.386C364.53 -138.994 384.459 -162.719 406.637 -184.197C406.635 -184.304 406.634 -184.412 406.634 -184.519C406.634 -193.623 413.971 -201.003 423.022 -201.003ZM59.8172 134.234C62.8186 129.381 70.3284 131.728 70.3284 137.433C70.1747 138.855 69.8971 140.269 69.843 141.698C69.0212 163.423 63.3409 184.691 53.2177 203.92C47.0964 215.548 39.4483 226.243 30.5103 235.732C23.8586 242.794 13.9617 236.454 16.8708 227.202C18.052 223.445 19.2997 219.709 20.6134 215.996C21.0098 214.876 21.6033 213.836 22.34 212.903C35.0298 196.83 43.5503 177.838 47.137 157.636C47.3751 156.295 47.8077 154.994 48.4586 153.797C52.0634 147.17 55.8511 140.646 59.8172 134.234ZM227.657 33.6086C218.803 35.3341 210.619 39.5531 204.055 45.7722C197.49 51.9924 192.815 59.9558 190.574 68.743C185.924 85.0462 187.116 102.475 193.938 117.985C194.769 120.306 196.125 122.399 197.903 124.099C199.68 125.798 201.828 127.06 204.174 127.778C206.52 128.497 208.999 128.652 211.416 128.236C213.834 127.821 216.122 126.844 218.097 125.383C232.379 116.432 243.115 102.758 248.457 86.7077C254.813 64.7819 246.83 38.8407 232.648 34.4027C231.047 33.8335 229.354 33.5637 227.657 33.6086Z" fill="url(#paint0_radial_172_669)" fill-opacity="0.2" stroke="#B78D37" stroke-opacity="0.7" stroke-width="1.53421" mask="url(#path-1-inside-1_172_669)"/>
<defs>
<radialGradient id="paint0_radial_172_669" cx="0" cy="0" r="1" gradientTransform="matrix(-79.7791 302.104 -233.2 -61.4961 233.2 333.954)" gradientUnits="userSpaceOnUse">
<stop stop-color="#B78D37"/>
<stop offset="1" stop-color="#B78D37" stop-opacity="0"/>
</radialGradient>
</defs>
</svg>
